<?xml version="1.0" standalone="no"?>
<!DOCTYPE svg PUBLIC "-//W3C//DTD SVG 20010904//EN"
 "http://www.w3.org/TR/2001/REC-SVG-20010904/DTD/svg10.dtd">
<svg version="1.0" xmlns="http://www.w3.org/2000/svg"
 width="50.000000pt" height="50.000000pt" viewBox="0 0 50.000000 50.000000"
 preserveAspectRatio="xMidYMid meet">
<metadata>
Created by potrace 1.15, written by Peter Selinger 2001-2017
</metadata>
<g transform="translate(0.000000,50.000000) scale(0.100000,-0.100000)"
fill="#000000" stroke="none">
<path d="M30 250 l0 -210 215 0 215 0 0 210 0 210 -80 0 c-47 0 -80 -4 -80
-10 0 -6 28 -10 65 -10 l65 0 0 -95 0 -95 -35 0 c-24 0 -35 -5 -35 -15 0 -10
11 -15 35 -15 l35 0 0 -75 0 -75 -95 0 -95 0 0 75 0 75 35 0 c24 0 35 5 35 15
0 12 -16 15 -85 15 -69 0 -85 -3 -85 -15 0 -10 11 -15 35 -15 l35 0 0 -75 0
-75 -75 0 -75 0 0 185 0 185 56 0 c47 0 63 -5 100 -32 34 -24 47 -29 56 -20 6
6 10 13 7 15 -69 55 -74 57 -162 57 l-87 0 0 -210z"/>
</g>
</svg>
